<svg width="512" height="512" viewBox="0 0 512 512" fill="none" xmlns="http://www.w3.org/2000/svg">
<path fill-rule="evenodd" clip-rule="evenodd" d="M193.517 7.5523C38.2697 45.1619 -44.1553 219.872 24.2916 366.237C115.02 560.249 396.999 560.687 487.308 366.953C578.463 171.404 403.029 -43.2083 193.517 7.5523ZM304.815 70.2734C331.886 76.2099 335.579 81.3062 335.551 112.697C335.491 180.092 312.484 268.813 277.557 336.323C245.812 397.695 245.931 397.862 245.281 291.28C244.787 209.719 241.014 144.521 233.337 84.8817C230.199 60.4948 245.74 57.3175 304.815 70.2734ZM151.981 185.077C162.557 269.7 162.362 425.458 151.686 419.753C114.262 399.757 71.6896 333.99 65.1731 286.108C61.8551 261.721 61.8551 261.721 79.6697 271.178C129.125 297.432 173.15 269.175 140.715 231.999C112.874 200.091 108.575 172.201 128.444 152.369C144.208 136.626 146.286 139.516 151.981 185.077ZM446.889 230.407C460.983 329.754 386.562 433.17 291.706 446.062C273.76 448.503 273.76 448.503 294.622 429.969C346.359 384.006 399.184 292.276 418.271 215.249C430.375 166.404 438.415 170.66 446.889 230.407Z" fill="url(#paint0_linear_200_36)"/>
<defs>
<linearGradient id="paint0_linear_200_36" x1="14.25" y1="438" x2="421.459" y2="95.8682" gradientUnits="userSpaceOnUse">
<stop stop-color="#00E1FF"/>
<stop offset="1" stop-color="#EE00FF"/>
</linearGradient>
</defs>
</svg>
